<svg xmlns="http://www.w3.org/2000/svg" fill="none" viewBox="0 0 800 318"><path fill="#000" fill-rule="evenodd" d="M800 3a3 3 0 0 0-3-3H3a3 3 0 0 0-3 3v312a3 3 0 0 0 3 3h794a3 3 0 0 0 3-3V3ZM35.83 197.16c.6 46.17 31.18 74.78 80.07 74.78 51.01 0 80.23-28 80.23-76.6V52.58a3 3 0 0 0-3-3h-49.4a3 3 0 0 0-3 3v142.31c0 19.68-8.78 29.97-25.43 29.97-16.05 0-25.58-10.75-26.04-28 0-.25-.2-.46-.45-.46H36.59a.76.76 0 0 0-.76.76ZM250.2 49.58a3 3 0 0 0-3 3V265a3 3 0 0 0 3 3h49.55a3 3 0 0 0 3-3v-75.44a3 3 0 0 1 3-3h78.61a3 3 0 0 0 3-3v-36.53a3 3 0 0 0-3-3h-78.61a3 3 0 0 1-3-3v-43.8a3 3 0 0 1 3-3h87.1a3 3 0 0 0 3-3V52.58a3 3 0 0 0-3-3H250.2ZM438.86 268a3 3 0 0 1-3-3V52.58a3 3 0 0 1 3-3h85.7c65.85 0 104.75 38.14 104.75 107.62v.3c0 69.78-38.9 110.5-104.75 110.5h-85.7Zm52.55-47.8a3 3 0 0 0 3 3h22.89c36.18 0 55.55-21.95 55.55-65.55v-.3c0-40.87-20.59-62.97-55.55-62.97H494.4a3 3 0 0 0-3 3V220.2ZM674.75 49.57a3 3 0 0 0-3 3V265a3 3 0 0 0 3 3h49.55a3 3 0 0 0 3-3V52.58a3 3 0 0 0-3-3h-49.55Z" clip-rule="evenodd"/></svg>